<svg aria-hidden="true" style="position: absolute; width: 0; height: 0; overflow: hidden;" version="1.1"
    xmlns="http://www.w3.org/2000/svg" xmlns:xlink="http://www.w3.org/1999/xlink">
    <defs>
        <symbol id="add" viewBox="0 0 32 32">
            <path fill="#1c274c" style="fill: var(--color1, #1c274c)"
                d="M9.146 1.667c0.040 0 0.080 0 0.121 0h0.049c0.469-0 0.77-0 1.065 0.028 1.268 0.119 2.471 0.617 3.452 1.43 0.228 0.189 0.441 0.402 0.773 0.734l0.768 0.769c1.128 1.128 1.561 1.549 2.062 1.827 0.291 0.162 0.599 0.289 0.919 0.381 0.551 0.157 1.155 0.166 2.75 0.166h0.566c1.697-0 3.065-0 4.148 0.136 1.122 0.141 2.075 0.442 2.858 1.146 0.131 0.118 0.256 0.243 0.374 0.374 0.704 0.783 1.005 1.736 1.146 2.858 0.136 1.083 0.136 2.451 0.136 4.148v3.079c0 2.45 0 4.391-0.204 5.91-0.21 1.563-0.653 2.829-1.651 3.826s-2.263 1.441-3.826 1.651c-1.519 0.204-3.46 0.204-5.91 0.204h-5.484c-2.45 0-4.391 0-5.91-0.204-1.563-0.21-2.829-0.653-3.826-1.651s-1.441-2.263-1.651-3.826c-0.204-1.519-0.204-3.46-0.204-5.91v-9.476c0-0.041 0-0.081 0-0.121-0-1.061-0-1.737 0.11-2.32 0.483-2.562 2.487-4.566 5.049-5.049 0.583-0.11 1.259-0.11 2.32-0.11zM9.266 3.667c-1.222 0-1.695 0.004-2.070 0.075-1.753 0.331-3.124 1.702-3.455 3.455-0.071 0.375-0.075 0.848-0.075 2.070v9.4c0 2.542 0.002 4.349 0.186 5.719 0.18 1.341 0.519 2.114 1.083 2.679s1.337 0.903 2.679 1.083c1.37 0.184 3.176 0.186 5.719 0.186h5.333c2.542 0 4.349-0.002 5.719-0.186 1.341-0.18 2.114-0.519 2.679-1.083s0.903-1.337 1.083-2.679c0.184-1.37 0.186-3.177 0.186-5.719v-2.936c0-1.781-0.002-3.023-0.12-3.966-0.115-0.918-0.327-1.413-0.649-1.77-0.071-0.079-0.146-0.154-0.224-0.224-0.357-0.322-0.852-0.534-1.77-0.649-0.943-0.119-2.185-0.12-3.966-0.12h-0.498c-0.050 0-0.099 0-0.147 0-1.397 0-2.298 0-3.151-0.243-0.468-0.133-0.918-0.32-1.343-0.556-0.775-0.431-1.412-1.068-2.4-2.057-0.034-0.034-0.069-0.069-0.104-0.104l-0.734-0.734c-0.378-0.378-0.522-0.521-0.669-0.643-0.671-0.556-1.494-0.897-2.362-0.978-0.191-0.018-0.394-0.019-0.928-0.019zM16 15c0.552 0 1 0.448 1 1v1.667h1.667c0.552 0 1 0.448 1 1s-0.448 1-1 1h-1.667v1.667c0 0.552-0.448 1-1 1s-1-0.448-1-1v-1.667h-1.667c-0.552 0-1-0.448-1-1s0.448-1 1-1h1.667v-1.667c0-0.552 0.448-1 1-1z">
            </path>
        </symbol>
        <symbol id="delete" viewBox="0 0 32 32">
            <path
                d="M28.31 7.43c-0.185-0.237-0.47-0.387-0.79-0.387-0.552 0-1 0.448-1 1 0 0.195 0.056 0.378 0.153 0.531l-0.002-0.004c1.458 2.072 2.33 4.647 2.33 7.426 0 7.18-5.82 13-13 13-7.178 0-12.998-5.818-13-12.996v-0c0.027-5.848 3.888-10.787 9.197-12.435l0.093-0.025c0.418-0.127 0.716-0.509 0.716-0.96 0-0.553-0.448-1.001-1.001-1.001-0.102 0-0.2 0.015-0.292 0.043l0.007-0.002c-6.251 1.904-10.72 7.618-10.72 14.376 0 8.284 6.716 15 15 15 8.283 0 14.998-6.714 15-14.996v-0c0-0.008 0-0.018 0-0.027 0-3.198-1.007-6.162-2.721-8.59l0.031 0.047z">
            </path>
            <path
                d="M19.71 3.54c1.646 0.508 3.074 1.277 4.316 2.27l-0.026-0.020c0.169 0.134 0.385 0.215 0.62 0.215 0.552 0 1-0.448 1-1 0-0.317-0.148-0.6-0.378-0.783l-0.002-0.002c-1.416-1.13-3.082-2.019-4.894-2.572l-0.106-0.028c-0.085-0.026-0.183-0.041-0.285-0.041-0.553 0-1.001 0.448-1.001 1.001 0 0.451 0.299 0.833 0.709 0.958l0.007 0.002zM15.29 2.71c0.094 0.085 0.203 0.156 0.322 0.207l0.008 0.003c0.112 0.051 0.242 0.080 0.38 0.080s0.268-0.030 0.386-0.083l-0.006 0.002c0.127-0.054 0.236-0.125 0.331-0.211l-0.001 0.001c0.179-0.181 0.29-0.429 0.29-0.704 0-0.002 0-0.004-0-0.006v0c-0.004-0.276-0.114-0.525-0.29-0.71l0 0c-0.182-0.19-0.438-0.308-0.722-0.308-0.067 0-0.132 0.006-0.195 0.019l0.006-0.001c-0.068 0.012-0.128 0.033-0.184 0.062l0.004-0.002c-0.069 0.024-0.128 0.054-0.182 0.092l0.002-0.002-0.15 0.12c-0.088 0.092-0.16 0.202-0.208 0.323l-0.002 0.007c-0.051 0.116-0.080 0.25-0.080 0.392 0 0.003 0 0.006 0 0.008v-0c0.002 0.138 0.031 0.268 0.082 0.386l-0.002-0.006c0.054 0.127 0.125 0.236 0.211 0.331l-0.001-0.001zM22.71 9.29c-0.181-0.18-0.43-0.291-0.705-0.291s-0.524 0.111-0.705 0.291l-5.3 5.3-5.29-5.3c-0.174-0.149-0.401-0.24-0.65-0.24-0.552 0-1 0.448-1 1 0 0.249 0.091 0.477 0.242 0.652l-0.001-0.001 5.29 5.3-5.3 5.29c-0.215 0.184-0.35 0.456-0.35 0.76 0 0.552 0.448 1 1 1 0.303 0 0.575-0.135 0.758-0.348l0.001-0.001 5.3-5.29 5.29 5.29c0.174 0.149 0.401 0.24 0.65 0.24 0.552 0 1-0.448 1-1 0-0.249-0.091-0.477-0.242-0.652l0.001 0.001-5.29-5.29 5.29-5.29c0.186-0.182 0.301-0.435 0.301-0.715 0-0.275-0.111-0.524-0.291-0.705l0 0z">
            </path>
        </symbol>
        <symbol id="home" viewBox="0 0 32 32">
            <path
                d="M11.968 24.96c0 0.53 0.43 0.96 0.96 0.96s0.96-0.43 0.96-0.96h-1.92zM12.928 22.104l-0.959-0.037c-0 0.012-0.001 0.024-0.001 0.037h0.96zM16 19.25l-0.034 0.959c0.023 0.001 0.045 0.001 0.068 0l-0.034-0.959zM19.072 22.104h0.96c0-0.012-0-0.024-0.001-0.037l-0.959 0.037zM18.112 24.96c0 0.53 0.43 0.96 0.96 0.96s0.96-0.43 0.96-0.96h-1.92zM12.928 24c-0.53 0-0.96 0.43-0.96 0.96s0.43 0.96 0.96 0.96v-1.92zM19.072 25.92c0.53 0 0.96-0.43 0.96-0.96s-0.43-0.96-0.96-0.96v1.92zM12.928 25.92c0.53 0 0.96-0.43 0.96-0.96s-0.43-0.96-0.96-0.96v1.92zM12.16 24.96v-0.96c-0.011 0-0.023 0-0.034 0l0.034 0.959zM7.552 20.677h-0.96c0 0.012 0 0.024 0.001 0.036l0.959-0.036zM8.512 12.094c0-0.53-0.43-0.96-0.96-0.96s-0.96 0.43-0.96 0.96h1.92zM3.941 13.384c-0.439 0.298-0.553 0.895-0.255 1.333s0.895 0.553 1.333 0.255l-1.078-1.589zM8.091 12.888c0.439-0.298 0.553-0.895 0.255-1.333s-0.895-0.553-1.333-0.255l1.078 1.589zM7.013 11.299c-0.439 0.298-0.553 0.895-0.255 1.333s0.895 0.553 1.333 0.255l-1.078-1.589zM14.228 7.562l-0.521-0.806c-0.006 0.004-0.012 0.008-0.018 0.012l0.539 0.794zM17.772 7.562l0.539-0.794c-0.006-0.004-0.012-0.008-0.018-0.012l-0.521 0.806zM23.909 12.888c0.439 0.298 1.036 0.183 1.334-0.255s0.183-1.036-0.255-1.333l-1.078 1.589zM19.072 24c-0.53 0-0.96 0.43-0.96 0.96s0.43 0.96 0.96 0.96v-1.92zM19.84 24.96l0.034-0.959c-0.011-0-0.023-0-0.034-0v0.96zM24.448 20.677l0.959 0.036c0-0.012 0.001-0.024 0.001-0.036h-0.96zM25.408 12.094c0-0.53-0.43-0.96-0.96-0.96s-0.96 0.43-0.96 0.96h1.92zM26.981 14.972c0.439 0.298 1.036 0.183 1.333-0.255s0.183-1.036-0.256-1.333l-1.078 1.589zM24.987 11.299c-0.439-0.298-1.036-0.183-1.333 0.256s-0.183 1.036 0.256 1.333l1.078-1.589zM13.888 24.96v-2.856h-1.92v2.856h1.92zM13.887 22.141c0.042-1.107 0.972-1.971 2.079-1.932l0.068-1.919c-2.164-0.076-3.982 1.613-4.065 3.777l1.919 0.073zM16.034 20.209c1.107-0.039 2.037 0.825 2.079 1.932l1.919-0.073c-0.083-2.164-1.901-3.853-4.065-3.777l0.068 1.919zM18.112 22.104v2.856h1.92v-2.856h-1.92zM12.928 25.92h6.144v-1.92h-6.144v1.92zM12.928 24h-0.768v1.92h0.768v-1.92zM12.126 24.001c-1.925 0.068-3.542-1.435-3.615-3.36l-1.919 0.073c0.113 2.982 2.618 5.311 5.601 5.206l-0.068-1.919zM8.512 20.677v-8.584h-1.92v8.584h1.92zM5.019 14.973l3.072-2.085-1.078-1.589-3.072 2.085 1.078 1.589zM8.091 12.888l6.677-4.531-1.078-1.589-6.676 4.531 1.078 1.589zM14.749 8.369c0.761-0.492 1.74-0.492 2.501 0l1.042-1.613c-1.395-0.901-3.189-0.901-4.585 0l1.042 1.613zM17.232 8.357l6.676 4.531 1.078-1.589-6.676-4.531-1.078 1.589zM19.072 25.92h0.768v-1.92h-0.768v1.92zM19.806 25.919c2.983 0.105 5.488-2.224 5.601-5.206l-1.919-0.073c-0.073 1.925-1.69 3.428-3.615 3.36l-0.068 1.919zM25.408 20.677v-8.584h-1.92v8.584h1.92zM28.059 13.383l-3.072-2.084-1.078 1.589 3.072 2.084 1.078-1.589z">
            </path>
        </symbol>
        <symbol id="login" viewBox="0 0 32 32">
            <path
                d="M26.667 30.667h-10.667c-0.736 0-1.333-0.597-1.333-1.333s0.597-1.333 1.333-1.333h10.667c0.736 0 1.333-0.597 1.333-1.333v-21.333c0-0.736-0.597-1.333-1.333-1.333h-10.667c-0.736 0-1.333-0.597-1.333-1.333s0.597-1.333 1.333-1.333h10.667c2.209 0 4 1.791 4 4v21.333c0 2.209-1.791 4-4 4z">
            </path>
            <path
                d="M24.917 14.253c0.869 1.002 0.869 2.491 0 3.493l-5.569 6.426c-1.617 1.865-4.682 0.722-4.682-1.746v-2.426h-8c-1.473 0-2.667-1.194-2.667-2.667v-2.667c0-1.473 1.194-2.667 2.667-2.667h8v-2.426c0-2.469 3.065-3.612 4.682-1.746l5.569 6.426zM22.145 16.873c0.434-0.501 0.434-1.245 0-1.747l-4.812-5.552v3.092c0 1.105-0.895 2-2 2h-8.667v2.667h8.667c1.105 0 2 0.895 2 2v3.092l4.812-5.553z">
            </path>
        </symbol>
        <symbol id="register" viewBox="0 0 32 32">
            <path
                d="M23 26c-0.552 0-1 0.448-1 1v0 3h-20v-24h4v1c0 0.552 0.448 1 1 1v0h10c0.552 0 1-0.448 1-1v0-1h4v1c0 0.552 0.448 1 1 1s1-0.448 1-1v0-2c0-0.552-0.448-1-1-1v0h-5v-1c0-1.657-1.343-3-3-3v0h-6c-1.657 0-3 1.343-3 3v0 1h-5c-0.552 0-1 0.448-1 1v0 26c0 0.552 0.448 1 1 1v0h22c0.552 0 1-0.448 1-1v0-4c0-0.552-0.448-1-1-1v0zM8 3c0-0.552 0.448-1 1-1v0h6c0.552 0 1 0.448 1 1v0 3h-8zM31.708 12.292l-4-4c-0.181-0.181-0.431-0.294-0.708-0.294s-0.527 0.112-0.708 0.294l-12 12c-0.18 0.181-0.292 0.43-0.292 0.706 0 0.001 0 0.001 0 0.002v-0 4c0 0.552 0.448 1 1 1v0h4c0.001 0 0.001 0 0.002 0 0.276 0 0.525-0.112 0.706-0.292l12-12c0.181-0.181 0.294-0.431 0.294-0.708s-0.112-0.527-0.294-0.708l-0-0zM16 24v-2.586l11-11 2.586 2.586-11 11zM12 25c0 0.552-0.448 1-1 1v0h-4c-0.552 0-1-0.448-1-1s0.448-1 1-1v0h4c0.552 0 1 0.448 1 1v0zM12 19c0 0.552-0.448 1-1 1v0h-4c-0.552 0-1-0.448-1-1s0.448-1 1-1v0h4c0.552 0 1 0.448 1 1v0zM17 14h-10c-0.552 0-1-0.448-1-1s0.448-1 1-1v0h10c0.552 0 1 0.448 1 1s-0.448 1-1 1v0z">
            </path>
        </symbol>
        <symbol id="logout" viewBox="0 0 32 32">
            <path fill="#030d45" style="fill: var(--color2, #030d45)"
                d="M6.769 7.902c0-2.050 1.684-3.712 3.761-3.712h5.47c0.566 0 1.026 0.453 1.026 1.012s-0.459 1.012-1.026 1.012h-5.47c-0.944 0-1.709 0.755-1.709 1.687v1.35c0 0.559-0.459 1.012-1.026 1.012s-1.026-0.453-1.026-1.012v-1.35zM7.795 21.736c0.566 0 1.026 0.453 1.026 1.012v1.35c0 0.932 0.765 1.687 1.709 1.687h5.47c0.566 0 1.026 0.453 1.026 1.012s-0.459 1.012-1.026 1.012h-5.47c-2.077 0-3.761-1.662-3.761-3.712v-1.35c0-0.559 0.459-1.012 1.026-1.012z">
            </path>
            <path fill="#030d45" style="fill: var(--color2, #030d45)"
                d="M17.026 6.382c0-1.175 1.187-1.99 2.303-1.582l6.838 2.499c0.671 0.245 1.116 0.876 1.116 1.582v14.238c0 0.706-0.445 1.337-1.116 1.582l-6.838 2.499c-1.117 0.408-2.303-0.407-2.303-1.582v-19.237zM20.041 2.901c-2.456-0.898-5.067 0.896-5.067 3.481v19.237c0 2.585 2.611 4.378 5.067 3.481l6.838-2.499c1.475-0.539 2.455-1.928 2.455-3.481v-14.238c0-1.553-0.979-2.941-2.455-3.481l-6.838-2.499z">
            </path>
            <path fill="#030d45" style="fill: var(--color2, #030d45)"
                d="M7.153 12.585c-0.401-0.395-1.050-0.395-1.45 0l-2.735 2.699c-0.401 0.395-0.401 1.036 0 1.431l2.735 2.699c0.401 0.395 1.050 0.395 1.45 0s0.401-1.036 0-1.431l-0.984-0.971h5.729c0.566 0 1.026-0.453 1.026-1.012s-0.459-1.012-1.026-1.012h-5.729l0.984-0.971c0.401-0.395 0.401-1.036 0-1.431z">
            </path>
        </symbol>
        <symbol id="contacts" viewBox="0 0 32 32">
            <path
                d="M16.248 23.179c0.847 0.585 2.174 1.161 3.521 1.161 0.159 0 0.317-0.008 0.476-0.025 0.836-0.090 1.686-0.429 2.277-0.909 0.009-0.007 0.892-0.743 0.901-1.485 0.011-0.827-0.742-1.65-1.505-2.411-1.191-1.257-1.991-1.742-3.311-1.105-0.030 0.015-0.059 0.032-0.085 0.052-0.254-0-1.133-0.514-1.869-1.622-0.174-0.26-0.344-0.547-0.506-0.852-0.16-0.304-0.301-0.606-0.419-0.898-0.521-1.293-0.417-2.261-0.283-2.459 0.031-0.011 0.062-0.024 0.090-0.041 1.275-0.732 1.324-1.667 0.958-3.345-0.201-1.072-0.456-2.158-1.144-2.616-0.517-0.343-1.43-0.183-1.738-0.092-0.717 0.212-1.495 0.736-2.030 1.367-0.981 1.152-1.324 2.791-1.317 3.941 0.009 1.857 0.682 4.211 1.799 6.298 1.092 2.1 2.656 3.984 4.185 5.040zM12.342 8.549c0.411-0.484 1.021-0.898 1.553-1.056 0.18-0.053 0.405-0.078 0.589-0.078 0.145 0 0.263 0.015 0.312 0.044 0.395 0.263 0.619 1.457 0.717 1.981 0.347 1.593 0.173 1.896-0.427 2.25-0.171 0.059-0.379 0.192-0.533 0.486-0.365 0.694-0.266 2.014 0.247 3.283 0.131 0.324 0.286 0.657 0.463 0.992s0.366 0.652 0.557 0.939c0.759 1.14 1.793 1.967 2.572 2.058 0.328 0.039 0.556-0.058 0.702-0.167 0.641-0.302 0.972-0.273 2.108 0.927 0.367 0.367 1.228 1.226 1.221 1.699-0.009 0.13-0.277 0.514-0.535 0.726-0.431 0.35-1.118 0.62-1.75 0.689-1.23 0.131-2.56-0.438-3.322-0.965-1.401-0.968-2.847-2.718-3.867-4.681-0.001-0.002-0.002-0.004-0.003-0.006-1.045-1.951-1.675-4.131-1.683-5.834-0.005-0.926 0.274-2.342 1.079-3.287z">
            </path>
            <path
                d="M29.588 5.468h-1.352v-1.592c0-1.861-1.514-3.376-3.375-3.376h-18.623c-1.861 0-3.376 1.514-3.376 3.376v2.854h-0.116c-1.099 0-1.992 0.893-1.992 1.991s0.894 1.991 1.992 1.991h0.116v3.297h-0.235c-1.098 0-1.99 0.893-1.99 1.991 0 1.099 0.893 1.993 1.99 1.993h0.235v3.484h-0.239c-1.098 0-1.991 0.893-1.991 1.991s0.893 1.991 1.991 1.991h0.239v2.667c0 1.861 1.514 3.376 3.376 3.376h18.623c1.861 0 3.375-1.514 3.375-3.376v-0.982h1.352c0.981 0 1.779-0.797 1.779-1.778v-18.119c0-0.98-0.798-1.777-1.779-1.777zM28.236 14.544h2.131v3.179h-2.131v-3.179zM28.236 13.544v-2.944h2.131v2.944h-2.131zM28.236 18.723h2.131v3.177h-2.131v-3.178zM29.588 6.468c0.43 0 0.779 0.349 0.779 0.777v2.355h-2.131v-3.132h1.352zM6.238 1.5h18.623c1.138 0 2.090 0.805 2.32 1.876h-23.264c0.231-1.070 1.182-1.876 2.32-1.876zM1.754 8.72c0-0.546 0.445-0.991 0.992-0.991h1.47c0.546 0 0.991 0.444 0.991 0.991s-0.444 0.991-0.991 0.991h-1.47c-0.547 0-0.992-0.444-0.992-0.991zM1.637 15.999c0-0.546 0.444-0.991 0.99-0.991h1.47c0.546 0 0.991 0.444 0.991 0.991 0 0.547-0.444 0.993-0.991 0.993h-1.47c-0.546 0-0.99-0.445-0.99-0.993zM1.633 23.467c0-0.546 0.444-0.991 0.991-0.991h1.47c0.546 0 0.991 0.444 0.991 0.991s-0.444 0.991-0.991 0.991h-1.47c-0.546 0-0.991-0.444-0.991-0.991zM4.094 25.457c1.098 0 1.991-0.893 1.991-1.991s-0.893-1.991-1.991-1.991h-0.231v-3.484h0.235c1.098 0 1.991-0.894 1.991-1.993 0-1.098-0.893-1.991-1.991-1.991h-0.235v-3.297h0.355c1.098 0 1.991-0.893 1.991-1.991s-0.893-1.991-1.991-1.991h-0.354v-2.354h23.374v23.249h-23.374v-2.167h0.231zM24.861 30.5h-18.623c-1.138 0-2.090-0.805-2.32-1.876h23.264c-0.23 1.070-1.182 1.876-2.32 1.876zM29.588 26.142h-1.352v-3.242h2.131v2.464c0 0.429-0.35 0.778-0.779 0.778z">
            </path>
        </symbol>
    </defs>
</svg>